<svg width="180" height="32" viewBox="0 0 180 32" fill="none" xmlns="http://www.w3.org/2000/svg">
<path d="M169.691 31.4356H162.789L167.245 18.1493H162.615L158.159 31.4356H151.258L161.566 0.60791H168.468L164.624 12.1574H169.254L173.098 0.60791H179.999L169.691 31.4356Z" fill="white"/>
<path d="M142.852 31.9566C140.348 31.9566 138.514 31.233 137.349 29.7857C136.184 28.3094 135.602 26.3121 135.602 23.7938C135.602 21.0729 136.184 17.9756 137.349 14.5021C138.921 9.69701 140.843 6.09321 143.114 3.69068C145.386 1.2592 147.934 0.043457 150.758 0.043457C153.146 0.043457 154.923 0.738166 156.087 2.12758C157.252 3.48806 157.864 5.38403 157.922 7.81551L151.982 9.94306C151.865 8.52469 151.661 7.45368 151.37 6.73003C151.079 5.97743 150.642 5.60113 150.06 5.60113C149.157 5.60113 148.269 6.35373 147.395 7.85893C146.522 9.33519 145.459 11.9259 144.206 15.631C142.896 19.4519 142.241 22.2741 142.241 24.0977C142.241 25.574 142.692 26.3121 143.595 26.3121C144.206 26.3121 144.803 26.0082 145.386 25.4003C145.997 24.7635 146.784 23.6201 147.745 21.9702L152.899 24.4017C151.792 26.5726 150.394 28.3818 148.706 29.8291C147.046 31.2475 145.095 31.9566 142.852 31.9566Z" fill="white"/>
<path d="M139.262 6.4261H131.268L129.215 12.5482H136.554L134.588 18.3664H127.25L124.804 25.6174H132.972L131.05 31.4356H115.98L126.289 0.60791H141.184L139.262 6.4261Z" fill="white"/>
<path d="M123.07 6.4261H117.522L109.136 31.4356H102.234L110.621 6.4261H105.161L107.083 0.60791H124.992L123.07 6.4261Z" fill="white"/>
<path d="M82.6617 32.0001C80.1283 32.0001 78.2792 31.2764 77.1144 29.8291C75.9496 28.3528 75.3672 26.3411 75.3672 23.7938C75.3672 21.1308 75.9496 18.0335 77.1144 14.5021C78.6577 9.72596 80.5651 6.12216 82.8364 3.69068C85.1078 1.2592 87.6121 0.043457 90.3494 0.043457C92.8828 0.043457 94.7319 0.781585 95.8967 2.25784C97.0615 3.70515 97.6439 5.70244 97.6439 8.2497C97.6439 10.9128 97.0615 14.01 95.8967 17.5414C94.3534 22.3176 92.446 25.9214 90.1747 28.3528C87.9033 30.7843 85.399 32.0001 82.6617 32.0001ZM83.3606 26.4858C84.1468 26.4858 84.9768 25.7477 85.8504 24.2714C86.7531 22.7952 87.816 20.1755 89.039 16.4125C90.3785 12.3601 91.0483 9.47992 91.0483 7.77209C91.0483 6.29584 90.5823 5.55771 89.6505 5.55771C88.8643 5.55771 88.0198 6.29584 87.1171 7.77209C86.2435 9.24835 85.1952 11.868 83.9721 15.631C82.6326 19.6256 81.9629 22.5057 81.9629 24.2714C81.9629 25.7477 82.4288 26.4858 83.3606 26.4858Z" fill="white"/>
<path d="M66.5911 13.981H76.026L70.1729 31.4356H65.2371L65.6739 28.9607C64.8876 29.9159 64.0868 30.6106 63.2715 31.0448C62.4852 31.45 61.568 31.6527 60.5196 31.6527C58.7142 31.6527 57.3747 31.0014 56.5011 29.6988C55.6566 28.3673 55.2344 26.5437 55.2344 24.228C55.2344 21.4491 55.8313 18.2072 57.0253 14.502C60.1993 4.83402 64.6838 0 70.4787 0C72.8374 0 74.6137 0.752601 75.8076 2.2578C77.0306 3.73406 77.715 5.67345 77.8606 8.07599L71.7017 10.1167C71.5852 8.43782 71.3668 7.2655 71.0465 6.59973C70.7553 5.93397 70.3476 5.60109 69.8235 5.60109C68.8916 5.60109 67.9743 6.32474 67.0716 7.77205C66.198 9.21936 65.1352 11.839 63.883 15.6309C62.6891 19.2782 62.0921 22.057 62.0921 23.9675C62.0921 25.5595 62.5289 26.3555 63.4025 26.3555C64.2761 26.3555 65.0915 25.7621 65.8486 24.5753C66.6057 23.3885 67.2755 21.9267 67.8579 20.19L67.9889 19.7992H64.6692L66.5911 13.981Z" fill="white"/>
<path d="M47.8217 19.4953C47.88 19.2927 48.011 18.8295 48.2148 18.1059C48.4478 17.3822 48.6953 16.6586 48.9574 15.9349L54.0243 0.60791H60.3578L50.0494 31.4356H42.7112L43.6721 15.5007C43.7304 14.4587 43.7886 13.6337 43.8469 13.0258C43.9051 12.389 43.9488 11.9693 43.9779 11.7667C43.9197 11.9693 43.774 12.4324 43.5411 13.1561C43.3373 13.8797 43.1043 14.6034 42.8422 15.3271L37.5133 31.4356H31.1797L41.4881 0.60791H49.0011L48.0838 15.7612L47.8217 19.4953Z" fill="white"/>
<path d="M35.0343 0.60791L30.5352 31.4356H23.8959L24.8568 25.8779H19.3095L16.6887 31.4356H9.65625L25.7304 0.60791H35.0343ZM25.9052 20.0598L27.6087 10.4207L28.3076 6.73003C27.7252 8.1484 27.2156 9.29177 26.7788 10.1602L22.105 20.0598H25.9052Z" fill="white"/>
<path d="M10.2211 8.29313C10.1046 10.2325 10.0027 11.4772 9.91533 12.0272C10.2648 11.2167 10.8326 10.1023 11.6188 8.6839L16.0305 0.60791H23.7619L10.3958 20.9716L6.90142 31.4356H0L3.66911 20.4505L3.75647 0.60791H10.5705L10.2211 8.29313Z" fill="white"/>
</svg>
