<svg width="48" height="48" viewBox="0 0 48 48" fill="none" xmlns="http://www.w3.org/2000/svg">
<g filter="url(#filter0_b_90_19665)">
<path d="M0 16C0 7.16344 7.16344 0 16 0H32C40.8366 0 48 7.16344 48 16V32C48 40.8366 40.8366 48 32 48H16C7.16344 48 0 40.8366 0 32V16Z" fill="white" fill-opacity="0.1"/>
<path d="M16 0.5H32C40.5604 0.5 47.5 7.43959 47.5 16V32C47.5 40.5604 40.5604 47.5 32 47.5H16C7.43959 47.5 0.5 40.5604 0.5 32V16C0.5 7.43959 7.43959 0.5 16 0.5Z" stroke="white" stroke-opacity="0.05"/>
<path d="M34.7809 19.6004C34.7809 19.6004 34.566 18.0836 33.9043 17.4176C33.0664 16.541 32.1297 16.5367 31.7 16.4852C28.6234 16.2617 24.0043 16.2617 24.0043 16.2617H23.9957C23.9957 16.2617 19.3766 16.2617 16.3 16.4852C15.8703 16.5367 14.9336 16.541 14.0957 17.4176C13.434 18.0836 13.2234 19.6004 13.2234 19.6004C13.2234 19.6004 13 21.3836 13 23.1625V24.8297C13 26.6086 13.2191 28.3918 13.2191 28.3918C13.2191 28.3918 13.434 29.9086 14.0914 30.5746C14.9293 31.4512 16.0293 31.4211 16.5191 31.5156C18.2809 31.6832 24 31.7348 24 31.7348C24 31.7348 28.6234 31.7262 31.7 31.507C32.1297 31.4555 33.0664 31.4512 33.9043 30.5746C34.566 29.9086 34.7809 28.3918 34.7809 28.3918C34.7809 28.3918 35 26.6129 35 24.8297V23.1625C35 21.3836 34.7809 19.6004 34.7809 19.6004ZM21.727 26.8535V20.6703L27.6695 23.7727L21.727 26.8535Z" fill="white"/>
</g>
<defs>
<filter id="filter0_b_90_19665" x="-32" y="-32" width="112" height="112" filterUnits="userSpaceOnUse" color-interpolation-filters="sRGB">
<feFlood flood-opacity="0" result="BackgroundImageFix"/>
<feGaussianBlur in="BackgroundImageFix" stdDeviation="16"/>
<feComposite in2="SourceAlpha" operator="in" result="effect1_backgroundBlur_90_19665"/>
<feBlend mode="normal" in="SourceGraphic" in2="effect1_backgroundBlur_90_19665" result="shape"/>
</filter>
</defs>
</svg>
