<svg width="24" height="24" viewBox="0 0 24 24" fill="none" xmlns="http://www.w3.org/2000/svg">
<path fill-rule="evenodd" clip-rule="evenodd" d="M12 3C16.9706 3 21 7.02944 21 12C21 16.9706 16.9706 21 12 21C7.02944 21 3 16.9706 3 12C3 7.02944 7.02944 3 12 3ZM8.09912 14C8.03425 13.3568 8 12.6874 8 12C8 11.3126 8.03425 10.6432 8.09912 10H5.28988C5.10128 10.6337 5 11.305 5 12C5 12.695 5.10128 13.3663 5.28988 14H8.09912ZM8.41579 16H6.25469C6.9891 17.0529 8.00554 17.8944 9.1945 18.4151C8.87902 17.7166 8.61483 16.9012 8.41579 16ZM10.4716 16H13.5284C13.3787 16.5827 13.1997 17.1042 13.0008 17.5517C12.7068 18.2133 12.4084 18.6248 12.1782 18.8439C12.0963 18.9219 12.0371 18.9634 12 18.9848C11.9629 18.9634 11.9037 18.9219 11.8218 18.8439C11.5916 18.6248 11.2932 18.2133 10.9992 17.5517C10.8003 17.1042 10.6213 16.5827 10.4716 16ZM13.8896 14H10.1104C10.0392 13.3693 10 12.6994 10 12C10 11.3006 10.0392 10.6307 10.1104 10H13.8896C13.9608 10.6307 14 11.3006 14 12C14 12.6994 13.9608 13.3693 13.8896 14ZM15.5842 16C15.3852 16.9012 15.121 17.7166 14.8055 18.4151C15.9945 17.8944 17.0109 17.0529 17.7453 16H15.5842ZM18.7101 14H15.9009C15.9657 13.3568 16 12.6874 16 12C16 11.3126 15.9657 10.6432 15.9009 10H18.7101C18.8987 10.6337 19 11.305 19 12C19 12.695 18.8987 13.3663 18.7101 14ZM10.9992 6.44832C10.8003 6.89577 10.6213 7.41732 10.4716 8H13.5284C13.3787 7.41732 13.1997 6.89577 13.0008 6.44832C12.7068 5.78673 12.4084 5.37516 12.1782 5.15605C12.0963 5.07812 12.0371 5.03659 12 5.01516C11.9629 5.03659 11.9037 5.07812 11.8218 5.15605C11.5916 5.37516 11.2932 5.78673 10.9992 6.44832ZM15.5842 8H17.7453C17.0109 6.94711 15.9945 6.10557 14.8055 5.58487C15.121 6.2834 15.3852 7.09884 15.5842 8ZM6.25469 8H8.41579C8.61482 7.09885 8.87902 6.2834 9.1945 5.58487C8.00554 6.10557 6.9891 6.94711 6.25469 8Z" fill="white"/>
</svg>
